# xmcd
#
# Track frame offsets:
#	150
#	18799
#	50632
#	68868
#	95736
#	113346
#	141629
#	159334
#	182858
#	194543
#
# Disc length: 2891 seconds
# Revision: 0
# Processed by: cddbd v1.5.2PL0 Copyright (c) Steve Scherf et al.
# Submitted via: dBpowerAMP V12.0
#
DISCID=8b0b490a
DTITLE=Odd Krokfoss and Morten Golten - KROKFOSS Vs GOLTEN - That Blues
DYEAR=2008
DGENRE=Blues
TTITLE0=Your So Fine
TTITLE1=Smoke And Cigarettes
TTITLE2=The Sweetest Baby In Town
TTITLE3=Are You Ready
TTITLE4=Hey Baby
TTITLE5=I Watch You
TTITLE6=I'm In Love
TTITLE7=My Loving Key
TTITLE8=My Swingeling
TTITLE9=Give Me That Blues
EXTD=
EXTT0=
EXTT1=
EXTT2=
EXTT3=
EXTT4=
EXTT5=
EXTT6=
EXTT7=
EXTT8=
EXTT9=
PLAYORDER=
